<mxfile host="65bd71144e">
    <diagram id="quQB7KyOD8w-L7fQBHno" name="Page-1">
        <mxGraphModel dx="1082" dy="771" grid="1" gridSize="10" guides="1" tooltips="1" connect="1" arrows="1" fold="1" page="1" pageScale="1" pageWidth="1169" pageHeight="827" math="0" shadow="0">
            <root>
                <mxCell id="0"/>
                <mxCell id="1" parent="0"/>
                <mxCell id="6" style="edgeStyle=orthogonalEdgeStyle;rounded=0;orthogonalLoop=1;jettySize=auto;html=1;" parent="1" source="3" edge="1">
                    <mxGeometry relative="1" as="geometry">
                        <mxPoint x="360" y="242" as="targetPoint"/>
                    </mxGeometry>
                </mxCell>
                <mxCell id="5" style="edgeStyle=orthogonalEdgeStyle;rounded=0;orthogonalLoop=1;jettySize=auto;html=1;entryX=0;entryY=0.438;entryDx=0;entryDy=0;entryPerimeter=0;" parent="1" source="4" edge="1">
                    <mxGeometry relative="1" as="geometry">
                        <mxPoint x="200" y="238.03200000000004" as="targetPoint"/>
                    </mxGeometry>
                </mxCell>
                <mxCell id="15" style="edgeStyle=orthogonalEdgeStyle;rounded=0;orthogonalLoop=1;jettySize=auto;html=1;" parent="1" source="12" target="45" edge="1">
                    <mxGeometry relative="1" as="geometry">
                        <mxPoint x="659" y="499" as="targetPoint"/>
                    </mxGeometry>
                </mxCell>
                <mxCell id="12" value="" style="points=[[0,0,0],[0.25,0,0],[0.5,0,0],[0.75,0,0],[1,0,0],[0,1,0],[0.25,1,0],[0.5,1,0],[0.75,1,0],[1,1,0],[0,0.25,0],[0,0.5,0],[0,0.75,0],[1,0.25,0],[1,0.5,0],[1,0.75,0]];outlineConnect=0;fontColor=#232F3E;gradientColor=#F78E04;gradientDirection=north;fillColor=#D05C17;strokeColor=#ffffff;dashed=0;verticalLabelPosition=bottom;verticalAlign=top;align=center;html=1;fontSize=12;fontStyle=0;aspect=fixed;shape=mxgraph.aws4.resourceIcon;resIcon=mxgraph.aws4.elastic_beanstalk;" parent="1" vertex="1">
                    <mxGeometry x="370" y="460" width="78" height="78" as="geometry"/>
                </mxCell>
                <mxCell id="14" style="edgeStyle=orthogonalEdgeStyle;rounded=0;orthogonalLoop=1;jettySize=auto;html=1;entryX=0;entryY=0.5;entryDx=0;entryDy=0;entryPerimeter=0;" parent="1" source="13" target="12" edge="1">
                    <mxGeometry relative="1" as="geometry"/>
                </mxCell>
                <mxCell id="13" value="" style="points=[[0,0,0],[0.25,0,0],[0.5,0,0],[0.75,0,0],[1,0,0],[0,1,0],[0.25,1,0],[0.5,1,0],[0.75,1,0],[1,1,0],[0,0.25,0],[0,0.5,0],[0,0.75,0],[1,0.25,0],[1,0.5,0],[1,0.75,0]];outlineConnect=0;fontColor=#232F3E;gradientColor=#60A337;gradientDirection=north;fillColor=#277116;strokeColor=#ffffff;dashed=0;verticalLabelPosition=bottom;verticalAlign=top;align=center;html=1;fontSize=12;fontStyle=0;aspect=fixed;shape=mxgraph.aws4.resourceIcon;resIcon=mxgraph.aws4.s3;" parent="1" vertex="1">
                    <mxGeometry x="81" y="460" width="78" height="78" as="geometry"/>
                </mxCell>
                <mxCell id="16" value="AWS S3&lt;br&gt;Web Hosting" style="text;html=1;align=center;verticalAlign=middle;resizable=0;points=[];autosize=1;strokeColor=none;" parent="1" vertex="1">
                    <mxGeometry x="79" y="549" width="80" height="30" as="geometry"/>
                </mxCell>
                <mxCell id="17" value="Elastic Beanstalk&lt;br&gt;API&lt;br&gt;with Express.js" style="text;html=1;align=center;verticalAlign=middle;resizable=0;points=[];autosize=1;strokeColor=none;" parent="1" vertex="1">
                    <mxGeometry x="354" y="549" width="110" height="50" as="geometry"/>
                </mxCell>
                <mxCell id="18" value="Skill DB&lt;br&gt;on AWS RDS&lt;br&gt;(PostgreSQL)" style="text;html=1;align=center;verticalAlign=middle;resizable=0;points=[];autosize=1;strokeColor=none;" parent="1" vertex="1">
                    <mxGeometry x="649" y="539" width="90" height="50" as="geometry"/>
                </mxCell>
                <mxCell id="35" style="edgeStyle=none;html=1;entryX=0.5;entryY=0;entryDx=0;entryDy=0;" edge="1" parent="1" source="19" target="22">
                    <mxGeometry relative="1" as="geometry"/>
                </mxCell>
                <mxCell id="19" value="Frontend&lt;br&gt;Web Application&lt;br&gt;pome_front" style="rounded=0;whiteSpace=wrap;html=1;" vertex="1" parent="1">
                    <mxGeometry x="60" y="170" width="120" height="60" as="geometry"/>
                </mxCell>
                <mxCell id="33" style="edgeStyle=none;html=1;entryX=0.5;entryY=0;entryDx=0;entryDy=0;" edge="1" parent="1" source="20" target="23">
                    <mxGeometry relative="1" as="geometry"/>
                </mxCell>
                <mxCell id="20" value="Bachend API&lt;br&gt;&lt;br&gt;pome_api" style="rounded=0;whiteSpace=wrap;html=1;" vertex="1" parent="1">
                    <mxGeometry x="349" y="170" width="120" height="60" as="geometry"/>
                </mxCell>
                <mxCell id="32" style="edgeStyle=none;html=1;entryX=0.5;entryY=0;entryDx=0;entryDy=0;entryPerimeter=0;" edge="1" parent="1" source="21" target="45">
                    <mxGeometry relative="1" as="geometry">
                        <mxPoint x="710" y="400" as="targetPoint"/>
                    </mxGeometry>
                </mxCell>
                <mxCell id="21" value="Bachend DB&lt;br&gt;&lt;br&gt;pome_db" style="rounded=0;whiteSpace=wrap;html=1;" vertex="1" parent="1">
                    <mxGeometry x="634" y="170" width="120" height="60" as="geometry"/>
                </mxCell>
                <mxCell id="36" style="edgeStyle=none;html=1;entryX=0.5;entryY=0;entryDx=0;entryDy=0;entryPerimeter=0;" edge="1" parent="1" source="22" target="13">
                    <mxGeometry relative="1" as="geometry"/>
                </mxCell>
                <mxCell id="22" value="" style="shape=image;verticalLabelPosition=bottom;labelBackgroundColor=#ffffff;verticalAlign=top;aspect=fixed;imageAspect=0;image=data:image/png,iVBORw0KGgoAAAANSUhEUgAAAH4AAAAhCAYAAAAf+x+qAAAABHNCSVQICAgIfAhkiAAAABl0RVh0U29mdHdhcmUAZ25vbWUtc2NyZWVuc2hvdO8Dvz4AAAAtdEVYdENyZWF0aW9uIFRpbWUAU3VuIDA2IE5vdiAyMDIyIDEwOjU5OjI2IEFNIEpTVPlmJ8UAAAgKSURBVHic7Vu/UyLLE/+8b70UNuMSjgTKAI20LsBNsEjAREiQSDQQE4HIyPMSjZBETAQD6yIXA+oSFhO9BJbgiki4wLoEMDGbxT9gXmDtPJadXRbP4+595VM1pUJPT/f09PSPXf+ilFLM8Obwv98twAy/BzPDv1HMDP9GMTP8G8Xfdoh6vR6ur6+hKAra7Tb6/T4AYH5+HoIgIBKJIBwOw+Px/FJhzaCqKvr9PhYWFqa2Zj6fBwBsb29DEISprWsHkiQhn8/D6XSiUCjw94VaoNvt0nQ6TV0ul60RjUZpt9u1YvlLsLS0RF0uF83lclNbU9O5Xq9PbU07uLu709lkaWmJS2d61UuShFAohHK5bPukKYqCDx8+MG+YBnq9HruB2u321Nb9U6Gqqu5vbW9GwTX8wcEBstksBoPBixY/Pj5GJpN50dxJ4fF4cHFxgXA4jL29vams+SdjYWEBfr+f/b29vc2l+4tSfQOnWCzi06dPryLE+vo6CoXCi+drHvyasbvX61nmIoqiwO12j81X3r17BwCoVCoQRdGS9jX0UFUVnU7HlmyqqqJWq8HpdGJ1dZVPNHzv1+t12/Hc7qhWqxPFqHq9TpPJJDd/kCSJO2d/f59Go1F6eXlJKaW0Wq3SaDRK9/f3KaX/5io+n48blyVJoisrK4Y1k8mkaQwfF+M1GXh62N0TQghNp9Msh9GGz+ej6XTaNJ+KRqNsaHswCp3hecprw+v10lwuR+/u7hh9t9ulZ2dndHFx0XTe0tISJYTYUtROIhmNRg381tbWdMldLpejLpeLrq2t0Wq1ygw+aixCiKXO2kin0wZZzQxPCOEeXN6hstoXntyjw+fzscPOk03bAx5YjJckCZ1Oh3sr+P1+tFot7O3t6a4rj8eDnZ0d3N7eIhwOc+f2+31IkjTuJkMmk2GJZDgcxsXFBR4fH/H4+IibmxsWqxRFQSwWMyQxPDw8PLBcJRAIMJ6iKEJVVcRiMaZzPB7Hzc0NW1PLGwCgXC7bzllisRhqtRrTo1Kp4P7+Hvf396hUKoxnrVZDLBbj8pBlGVtbW2NzrMFggGw2C1mWbcmmg3YCNjY2uKdqcXHRtscGg0Euj5WVFct5l5eXjJZ3gjXc3d1Rr9dLXS6X7goz83htnJ2dGXjt7u6ym2z4FrMrG8/jh9e10mOY52gJSggxeLrX66UbGxs0l8vR/f19tgfDnj9sIzsezww/yswsRhNCqCRJtFgsGmJMt9s1vZas6ntNUTt1eL1ep7lcTkdrZfiNjQ0Dj2E57cTbarVKc7mcpeGHDcY7aKM4OzvjGm300AaDQcPeEUIMTjbsCBMZ3g663a7uNPp8PkOM04wwOqySII3G7s0yCivD8w6ctunBYPBF61FqNLzmxV6v15YehBDmbMMHajiR83q9pg4zPH9UFzuGt9Wy1XBwcKCLO4PBAAcHB7i9vWWfiaKIZrNpmKsoCrfs0WJsIBB49dan3+/nlj5aDDYtdV4ArVHy9PSEubm5F80d/V0URdPSTRAE/Pjx4wWSPmOihzS8hMosIfwTMM0e+s90DRuNBoDnHsMwfuWzh4k8nreRw12it4yFhQVcX1/D7/fj6Ohoornv378HAIN3NxqNX9aNZIbv9Xp4eHjQfel0OnWn7vDwEO12m9E5HA6cnp4ahOVheXnZ8vNmswlVVafipZFIBM1mE7Va7dU2VjPe9+/fx3byrOB2u9n+djodtNttruf3ej2EQiEWev1+P75+/Wp7HXbVh0IhxGIx3QiFQroa0ePx4Pb2FhcXFzg5OUGr1dIJ1W63ufEd+HdjRiGKItxuN4DnHv84yLKMfD7/Uw+CIpEIgOeNLRaLY+m1x5xW/YhIJAKHwwFgMj1GeSYSCfb7YDBAJpMxhBFVVbG5uanLtybNV5jhzRow2WxWF9sFQcDq6ioSiYTOO1VVNW1ymCVZGjSvOz8/R6lUMqVrNBrIZrM4Pj4GIcSUbhw8Hg9rCOXzedNbCgBKpRJb0+l0mtIJgoCdnR3G0+qQSJKEra0tHB8fG/KmVCrFDhDwfDg1R8zn89jc3MTc3Jwut3I4HEilUtZKj0JL76369CsrK5ZNDkIIty9t1UAZhdZQcbme27KyLFNCCCWE0EajoWvnBoNBXclk1bK1knm4Fk6n07TRaFBKn8tWWZZ1Ou3u7urmm5Wpw+Wspke326WEECrLsq6daybfpM9MRnsRE5VzoigiEAhwr+pOp4NQKIT19XUkEgn25k2v18PV1RWKxaJpe9HtdjNPsMLp6SkEQcD5+TkURYGiKFy6cDiMQqHw07mAIAj48uULkskkms0myuWy6bsH29vbthO2z58/4+PHj7i6urLUIx6PG/IjDaIoolKpIJlM4unpyXQth8OBQqHworJUl9UfHR0hFAqZElttjhkODw9t0x4dHSESiUCSJNRqNZ3S4XAYqVSKmzhpecb8/Dz7GQgExpZDmvFlWUa5XMb19TX7zuFwIBKJYGdnh8snEAgAMOYugiDg9PQUiUQCpVJJx3OcHsMQRRGtVgulUgmSJOkSb7fbjUQigVQqxXUATTaNDw+/9Hn8JJ7Cgxb/plmPj3te/xK8lh6vKZvB8MBz8pHNZn+KsdVVNsPvB9fwwHO5kclkLGOMGU5OTnRlyQx/Hkxbtqurq2i1WojH47aZxeNxfPv2bWb0/wBMPX4Y2jtcjUYD/X5f9w6Z9l798vLyb3uvfobJYcvwM/z/YfYvVG8UM8O/UfwDXhKY+DizZcsAAAAASUVORK5CYII=;imageBorder=#050505;" vertex="1" parent="1">
                    <mxGeometry x="56" y="330" width="126" height="33" as="geometry"/>
                </mxCell>
                <mxCell id="34" style="edgeStyle=none;html=1;" edge="1" parent="1" source="23" target="12">
                    <mxGeometry relative="1" as="geometry"/>
                </mxCell>
                <mxCell id="23" value="" style="shape=image;verticalLabelPosition=bottom;labelBackgroundColor=#ffffff;verticalAlign=top;aspect=fixed;imageAspect=0;image=data:image/png,iVBORw0KGgoAAAANSUhEUgAAAH4AAAAhCAYAAAAf+x+qAAAABHNCSVQICAgIfAhkiAAAABl0RVh0U29mdHdhcmUAZ25vbWUtc2NyZWVuc2hvdO8Dvz4AAAAtdEVYdENyZWF0aW9uIFRpbWUAU3VuIDA2IE5vdiAyMDIyIDEwOjU5OjI2IEFNIEpTVPlmJ8UAAAgKSURBVHic7Vu/UyLLE/+8b70UNuMSjgTKAI20LsBNsEjAREiQSDQQE4HIyPMSjZBETAQD6yIXA+oSFhO9BJbgiki4wLoEMDGbxT9gXmDtPJadXRbP4+595VM1pUJPT/f09PSPXf+ilFLM8Obwv98twAy/BzPDv1HMDP9GMTP8G8Xfdoh6vR6ur6+hKAra7Tb6/T4AYH5+HoIgIBKJIBwOw+Px/FJhzaCqKvr9PhYWFqa2Zj6fBwBsb29DEISprWsHkiQhn8/D6XSiUCjw94VaoNvt0nQ6TV0ul60RjUZpt9u1YvlLsLS0RF0uF83lclNbU9O5Xq9PbU07uLu709lkaWmJS2d61UuShFAohHK5bPukKYqCDx8+MG+YBnq9HruB2u321Nb9U6Gqqu5vbW9GwTX8wcEBstksBoPBixY/Pj5GJpN50dxJ4fF4cHFxgXA4jL29vams+SdjYWEBfr+f/b29vc2l+4tSfQOnWCzi06dPryLE+vo6CoXCi+drHvyasbvX61nmIoqiwO12j81X3r17BwCoVCoQRdGS9jX0UFUVnU7HlmyqqqJWq8HpdGJ1dZVPNHzv1+t12/Hc7qhWqxPFqHq9TpPJJDd/kCSJO2d/f59Go1F6eXlJKaW0Wq3SaDRK9/f3KaX/5io+n48blyVJoisrK4Y1k8mkaQwfF+M1GXh62N0TQghNp9Msh9GGz+ej6XTaNJ+KRqNsaHswCp3hecprw+v10lwuR+/u7hh9t9ulZ2dndHFx0XTe0tISJYTYUtROIhmNRg381tbWdMldLpejLpeLrq2t0Wq1ygw+aixCiKXO2kin0wZZzQxPCOEeXN6hstoXntyjw+fzscPOk03bAx5YjJckCZ1Oh3sr+P1+tFot7O3t6a4rj8eDnZ0d3N7eIhwOc+f2+31IkjTuJkMmk2GJZDgcxsXFBR4fH/H4+IibmxsWqxRFQSwWMyQxPDw8PLBcJRAIMJ6iKEJVVcRiMaZzPB7Hzc0NW1PLGwCgXC7bzllisRhqtRrTo1Kp4P7+Hvf396hUKoxnrVZDLBbj8pBlGVtbW2NzrMFggGw2C1mWbcmmg3YCNjY2uKdqcXHRtscGg0Euj5WVFct5l5eXjJZ3gjXc3d1Rr9dLXS6X7goz83htnJ2dGXjt7u6ym2z4FrMrG8/jh9e10mOY52gJSggxeLrX66UbGxs0l8vR/f19tgfDnj9sIzsezww/yswsRhNCqCRJtFgsGmJMt9s1vZas6ntNUTt1eL1ep7lcTkdrZfiNjQ0Dj2E57cTbarVKc7mcpeGHDcY7aKM4OzvjGm300AaDQcPeEUIMTjbsCBMZ3g663a7uNPp8PkOM04wwOqySII3G7s0yCivD8w6ctunBYPBF61FqNLzmxV6v15YehBDmbMMHajiR83q9pg4zPH9UFzuGt9Wy1XBwcKCLO4PBAAcHB7i9vWWfiaKIZrNpmKsoCrfs0WJsIBB49dan3+/nlj5aDDYtdV4ArVHy9PSEubm5F80d/V0URdPSTRAE/Pjx4wWSPmOihzS8hMosIfwTMM0e+s90DRuNBoDnHsMwfuWzh4k8nreRw12it4yFhQVcX1/D7/fj6Ohoornv378HAIN3NxqNX9aNZIbv9Xp4eHjQfel0OnWn7vDwEO12m9E5HA6cnp4ahOVheXnZ8vNmswlVVafipZFIBM1mE7Va7dU2VjPe9+/fx3byrOB2u9n+djodtNttruf3ej2EQiEWev1+P75+/Wp7HXbVh0IhxGIx3QiFQroa0ePx4Pb2FhcXFzg5OUGr1dIJ1W63ufEd+HdjRiGKItxuN4DnHv84yLKMfD7/Uw+CIpEIgOeNLRaLY+m1x5xW/YhIJAKHwwFgMj1GeSYSCfb7YDBAJpMxhBFVVbG5uanLtybNV5jhzRow2WxWF9sFQcDq6ioSiYTOO1VVNW1ymCVZGjSvOz8/R6lUMqVrNBrIZrM4Pj4GIcSUbhw8Hg9rCOXzedNbCgBKpRJb0+l0mtIJgoCdnR3G0+qQSJKEra0tHB8fG/KmVCrFDhDwfDg1R8zn89jc3MTc3Jwut3I4HEilUtZKj0JL76369CsrK5ZNDkIIty9t1UAZhdZQcbme27KyLFNCCCWE0EajoWvnBoNBXclk1bK1knm4Fk6n07TRaFBKn8tWWZZ1Ou3u7urmm5Wpw+Wspke326WEECrLsq6daybfpM9MRnsRE5VzoigiEAhwr+pOp4NQKIT19XUkEgn25k2v18PV1RWKxaJpe9HtdjNPsMLp6SkEQcD5+TkURYGiKFy6cDiMQqHw07mAIAj48uULkskkms0myuWy6bsH29vbthO2z58/4+PHj7i6urLUIx6PG/IjDaIoolKpIJlM4unpyXQth8OBQqHworJUl9UfHR0hFAqZElttjhkODw9t0x4dHSESiUCSJNRqNZ3S4XAYqVSKmzhpecb8/Dz7GQgExpZDmvFlWUa5XMb19TX7zuFwIBKJYGdnh8snEAgAMOYugiDg9PQUiUQCpVJJx3OcHsMQRRGtVgulUgmSJOkSb7fbjUQigVQqxXUATTaNDw+/9Hn8JJ7Cgxb/plmPj3te/xK8lh6vKZvB8MBz8pHNZn+KsdVVNsPvB9fwwHO5kclkLGOMGU5OTnRlyQx/Hkxbtqurq2i1WojH47aZxeNxfPv2bWb0/wBMPX4Y2jtcjUYD/X5f9w6Z9l798vLyb3uvfobJYcvwM/z/YfYvVG8UM8O/UfwDXhKY+DizZcsAAAAASUVORK5CYII=;imageBorder=#050505;" vertex="1" parent="1">
                    <mxGeometry x="346" y="330" width="126" height="33" as="geometry"/>
                </mxCell>
                <mxCell id="24" value="" style="dashed=0;outlineConnect=0;html=1;align=center;labelPosition=center;verticalLabelPosition=bottom;verticalAlign=top;shape=mxgraph.weblogos.github" vertex="1" parent="1">
                    <mxGeometry x="170" y="210" width="40" height="40" as="geometry"/>
                </mxCell>
                <mxCell id="26" value="" style="dashed=0;outlineConnect=0;html=1;align=center;labelPosition=center;verticalLabelPosition=bottom;verticalAlign=top;shape=mxgraph.weblogos.github" vertex="1" parent="1">
                    <mxGeometry x="460" y="210" width="40" height="40" as="geometry"/>
                </mxCell>
                <mxCell id="27" value="" style="dashed=0;outlineConnect=0;html=1;align=center;labelPosition=center;verticalLabelPosition=bottom;verticalAlign=top;shape=mxgraph.weblogos.github" vertex="1" parent="1">
                    <mxGeometry x="740" y="210" width="40" height="40" as="geometry"/>
                </mxCell>
                <mxCell id="29" style="edgeStyle=none;html=1;entryX=0.5;entryY=0;entryDx=0;entryDy=0;" edge="1" parent="1" source="28" target="19">
                    <mxGeometry relative="1" as="geometry"/>
                </mxCell>
                <mxCell id="30" style="edgeStyle=none;html=1;entryX=0.5;entryY=0;entryDx=0;entryDy=0;" edge="1" parent="1" source="28" target="20">
                    <mxGeometry relative="1" as="geometry"/>
                </mxCell>
                <mxCell id="31" style="edgeStyle=none;html=1;entryX=0.5;entryY=0;entryDx=0;entryDy=0;" edge="1" parent="1" source="28" target="21">
                    <mxGeometry relative="1" as="geometry"/>
                </mxCell>
                <mxCell id="28" value="" style="shape=image;verticalLabelPosition=bottom;labelBackgroundColor=#ffffff;verticalAlign=top;aspect=fixed;imageAspect=0;image=data:image/jpeg,/9j/4AAQSkZJRgABAQAAAQABAAD/2wCEAAkGBwgHBgkIBwgKCgkLDRYPDQwMDRsUFRAWIB0iIiAdHx8kKDQsJCYxJx8fLT0tMTU3Ojo6Iys/RD84QzQ5OjcBCgoKDQwNGg8PGjclHyU3Nzc3Nzc3Nzc3Nzc3Nzc3Nzc3Nzc3Nzc3Nzc3Nzc3Nzc3Nzc3Nzc3Nzc3Nzc3Nzc3N//AABEIALoAugMBEQACEQEDEQH/xAAbAAEAAgMBAQAAAAAAAAAAAAAABgcBAgUEA//EADkQAAEDAgMFBAcIAwEBAAAAAAEAAgMEEQUGIRIxQVFhEyJxsQczcnOBkdEjMjRSYqHB8BQkQuEV/8QAGgEBAAIDAQAAAAAAAAAAAAAAAAEFAgMEBv/EAC4RAQACAQIFAwMEAgMBAAAAAAABAgMEEQUSISIxMkFRYbHwE3GRoSPBQoHRM//aAAwDAQACEQMRAD8AvFAQEBAQEBAQEBAQEBAQYJ0QczHcapMFpDNUu2nu9XE09556fVbMWK2Sdoas2WuKu8q0xHNOLVsxkNS6Jl9IojstA681aY8NMcdI3/dU5M+TJPWdv2dDBswV7W9pHUPOybOY9xcP3W22DFljrVqrqM2Gelv56pXh2aKaezK1vYP/ADb2H+QuHLoL1606w78PEKW6X6T/AEkTJGSNDmOa5p3EG4K4ZjadpWETExvDZQkQEBAQEBAQEBAQEBAQEBAQLoOJmPMFNglP3yJKl4PZwg6nqeQW7Dhtln6NGfPGKPqqvEsQqcSq31NZIZJHfJo5AcAramOtK7VU98lr23s8hWTF08FP2UvtDyWzF4a8rora1bvTQ4hV0Dg6lmcwcWnVp8QtWTDTJHdDZiz5MU9spPh2a6eQhtcwxO3bbQS36hVuXh9q9cfVaYeI0npk6SkUU8U0Ykhe17Duc03C4JiaztPRY1tFo3jq+gN9yhIgICAgICAgICAgICAgwTZBHs1ZnhwWLsYtmWueO7HfRg/M76cV0YNPbLO/s5dRqa4o291W1dVPW1L6mqkMkrzdzj/dytq1isbQqLWm081nxWSN2riolLp4L6uX2v4WeLw1ZXRW1qEBB6KOtqaOTbppnMPGx0Pw3LXkxUyeqN2zHlvj9E7JVg+aWzvbBXRtjkcbCRv3SevJVmfQzSOak7rTT8Qi08uSNpSYKvWYgICAgICAgICAgIME8kEUzdmyPCgaSiIkrXDUjVsXj16f09Wn005O63hx6jVRj7a+VZSyvmlfLK8vkkO09ztS481axERG0KiZmZ3lrdSF0GhUSmHUwT1UvtfwtmJry+YdFbWncQEBAQSKnzXLFBHG5u0WMDS48bDeuC2gra0ysqcQmtYiU3VMuhAQEBAQEBAQEGCdEEIzhnAUvaUGFSB1RukmG6LoObvLx3dum0vN3X8ODU6rl7KeVdlxc4uc4uc43LidXdSrP6Krf3YUggINXLGUw6eC+ql9oLbi8NeXzDpLY1CAgICDU71khbi8q9a8GLYrR4VTiasl2ATZrRq5x6BbMeK+Wdqw1Zc1MUb2lyaHOWE1U4iL5IC42a6Vtmn48FvyaLLSN/Lnpr8N5232SMEWXI7WyAgICAgwXADeEFeZwzkXdph+ESWG6WoH7hv1+SsNNpf+eRWanV/8KIIrFXCBdAugXQauIWMph1ME9XJ7QW3F4a8vmHSW1pgQEBAQaHepFjZhx+lwWm2pO/O8fZQg6u69B1XnMGntmttHj5ek1Gpphr18/CrMSxCpxOrdU1jy+Q6AcGjkFfYsdcVeWrz+XLbLfns82nEXCzYJHlvNlRhhbT1gdPSDdr3ox05jouLU6KMkc1ek/d3abXWxTy36wsiiraetpo56WQSRPGjmqmtS1J5bR1XdMlb1i1Z3h6VizEBBo+RrGuc82a0XJOgAREzsrPOOcDXufh+FSFlLukmG+XoOnmrTTaXl77+VVqtXz9lPCHDcu5wCjYE2BNgTYE2H2oKKpxGqbS0UTpZnf8gbhzPILC960jezZSlrztVJ6rAXZfgp4pZhLNOHPlLR3W2toPmmkzfq80+xrMP6U1j3l5l17OMTZAmwJsCbDU71kbvBidbLiFfNVTuJfI8mx/5F9AtOLHGOkVjw25ck5LzazzXWxrLoF9UHQwbGavBqntaR/cd6yInuv+HPqtObBTNXazdgz3wW3r/CzsAzFR43DeA7E7R9pC894dRzHUKjz6e+Gevj5X2n1VM8dvn4dcFaHS+dTUR0sT5p3tjiYC573GwaOZUxEzO0ImYiN5VXm/N0uMSPpaFxioAdRudN1P6eittPpYxxzW8qbU6qcvbXx90WuutyF0C6BdAugXQdrLmW63HprwtMVK09+oeNPBvM+S0Z9RTFH1b8Gnvmnp4+Vq4Jg1Fg1N2FFEG3+/IdXPPMlVGTLbJO8rnFipjjaqO590q6Mfod5hWfDPRb8+VVxT11/PhFrq0VZdQF0C6BdBi6lDp5xyxLRyy4lQtc+lkdtSsGpiJ3nq3y8FW6PVxaIpfys9bo5pM5KdY+yJ/IqxVoiRATYfSCeWnmbNBI+ORhu1zDYhRasWjaY3TW01neJ2T/AADPEEsJjxlzYZmNv2rR3ZB4cD0VPqNBNZ3xdYXOm4hW0cuXpKHZszXUY/MYo7xUDT3I+L/1O+nBb9Pp64o3ny59TqLZuns4AOi6nKzdEMoCAgx+6kTbKuR5Kzs6vGWvhg3tp9zpB+rkOm/wVfqNZFe2n8rDT6Kbd2Tp9Fkw08METIoY2sjYLNa0WACrZmZneVrFYiNofWyhKFZ//GUXu3eYVvwz0W/PlS8V9dPz3hFbq0VRdQF0C6BdBqVKFvvALSC0EHhbevKeHr5V5m/KJg7TEMKjPZb5adovs9W9Oit9JrYnsy+faVNrNDNf8mLx7whQPXRWn0Vf1ZUAgXQL8UJfCWAO70Zs7lzWu1IlsrkmPLzXINnCx5LV1jy3bxPhsHKUM3UoLoPvRUtRX1DaajidLO891rf7oFje0VjeWVaWvPLVZ+VsmQYWGVVeGVFbvGl2ReHM9VU59VOTpXpC30+jrj7r9Z+yXrkdrKAghOf/AMZRe7d5hXHDPRb8+VJxX10/PeEVVmqxAQEBBqpQuJeTewavFxogg2b8oGUvrsIjtIe9LTtGj+Zb16cVZ6TW8vZk8fKp1mh33yY/PwgB0JBBGvJW/T2U5cKQugXQLoPnLG2Ua6HgVjakW8pi818PI9jonWIuOa0TEw6K2i3hgOQdrLmXa/H57UrNiBptJUPHdb0HM9PmtWbPTFHXy3YcF809vj5W1gWAUOCU/Z0cXfcB2kztXv8AE8uip8ua+Wd7SucOCmGNqQ6o3LU3MoCAghHpA/G0Xu3eYVxwz0W/PlScV9dPz3hFVaKoUAgICDVShca8m9iINX+CCvPSRQYXS9nWCZsNdK63YtHrhxJHC3NWnD899+WesKjiOnx7c8dJQgEEXGoPFW8fRT/uICAgIMGzhZwu3kk9SN48OhlXB8NxHFmw4nVmKHeyPd2p/LtcPDeuHVRkx13pG7t0v6eS/LknZc1HTw0kDIKaJsUTBZjGiwAVHMzad5nd6CtYrG0Rs+6hkICAgIIR6QfxtF7t/mFc8M9Fvz2lScW9dPz3hFLqzVQgICAg1O9Tshci8k9iwTZBHM25qpsBg2G7Mtc9v2cN936ndPNdGDTWzT9HLqNTXDH1U7iFbU4jVyVVdKZp3/ecfIcgritIpG1VLa9rzzWfKCfsjsnVvktlbcssL05o393tBBFwdOC3+XP48l1KC6BdAugeKCYZXztNQbFLipdNTbmzb3x+PMfv4qu1Ogi+9sfn4Wel4hNNq5fHysinqI6mFs0D2yRuFw5huCqW0TWdpXlbRaN6+H2ChIgICCD+kL8bRe6f5hXPC/Rb89pUfFvXT894RMHRWiqZQEBAQak6qULkO5eReyRLOWcYcFjdSUZZLiLho06iIc3fRdem0tss7z0hxarVxi7Y8qlqaiaqnkqKmV8ssji5z3m5JVzFYrG1fClm02nmt5fJENSoSzFKYnHW7SprblLV53ta8PbtN3c1vid4c8xtOzN1KC6BdAugXKDr5ezDW4FPeAmSnce/A4909RyPVc2o01M0dfLp0+qvgnt8fC1MEx2ixqmEtHJ3gO/E770Z5H6jRUWfBfDO1oegwajHnrvR1VpbxAQQb0ifjKH3b/MK54X6LfntKj4t66fnvCKK1VQiBAQEGqCW52zoMMa/D8Ke19dukk3iH6u8l5/S6T9Tuv4ei1es/T7KeVWSPfI90kj3Pkebue43JPMq3iNo22U8zvO+7VECAiWrtN+nioTumGU8kV+JxOqqp76Omc37MOb3pORsdw81yZNbXFbavV2YtDOaN79IcvF8Lq8HqzTVsRa7/hwHdeOYXfizUy15qyr82G+G3LeHiutrSXQLoF0C6D7UVbUUFSyppJnRSt3FvHoeYWF8dcleW0dGVMl8duak7Ss7K2cabFjHS1pZT1p3C9my+zfcenmqPU6G2Lup1r9l9pdfTL236W+/7JZcc1wrFlBBvSJ+NoPdv8wrnhfot+e0qLi/rp+e8IkrVVCAgICDVEI7XGX/AD6r/J9f2z+19vaN/wB1y025Y28Oy+/NPN593yusmJdAug+lPDNVVEdPTRulmkNmMYLklRa0VjefCaxNp2jys/KGQoqAsrcZDJ6kasg3si8fzH9lU6jWzftx9IXGn0MU7snWU6AK4Fg5+OYNSY3ROpqxmm9r2/eYeYW3DmvhvzUac+CmevLdUOP4JWYFWdhVjaY7WOYDuvH16L0On1FM1d4eb1Gmvgvyz/05i3ucTYE2BNgTYDx1Pw0RKb5Wzy+l2aTGXukg0DKk6uZ7XMdVWarh8W7sX8f+LbScSmO3L/P/AKseCaOeJssL2vjeNprmm4I6KmmJidpXUTExvCE+kU/7lB7t/mFc8L9Fvz2lR8X/APpT9p/0iV1aqlm6gLoF0C6DCkS/PGSxim3iGFAMrhrJFuEw/h3mvPaXVTj7b+Ho9Xo/1O+nlVEjHxSOjla5j2Etc1wsWnkVcRO8bwppiYnaWtwN5QdTAMBr8eqTDQx91pHaTO+5H4niei05s1MUb2bcGC+W21Vw5ZyvQ5fpwKdvaVLh9pUPHed0HIdFTZtRbNPXx8LzBpqYY6efl3LW3LQ6GUBB48Uw2lxSlfTVkYfG8fFp5g8Cs8eS2O3NWWvLiplrNLx0lUOZcuVWA1Nn3kpXH7KYDf0PI+a9DpdTTPX4n4ec1Wlvgt81+XF4XXU5BAQEBAug7WW80VuAzbLCZaRx71O46eLeRXHqdJTPH1+XZptXfB+3w72aMZosc/8An1VBJduw8PY4WdGbjRwWvQYb4ovW30bOI5qZppanxP8ApwrqxVwiBAQEBBdFl5B7RFc35LpMe/2YHCmrhp2trteOTh/K6sGqti6T1hx6jSVzdY6SjOHejCoNQDiVcwQA6tgB2nDxO5dd+Ixt2Q5KcNnfvlY2H4fSYdSMpaKFsMLBYNb/AHVVdrWvO9pWtKVpG1YetQyEBAQEHnraOnraaSnqoxJDILOa7isqWtS3NWerC9K3ry28KkzZlafApe2i2paBxsyQ6mPk1314q/0msrmjlnpZ53WaO2CeaOtUcuu1w7l0Ny6G5dDcug0fxWMsodDB/Vy+0FNEXe9ZMRAQEBAUi6l497QQYsOSDKAgICAgICD5VEEM8L4po2vjeNlzSNCFMTMTvCLRExtKqc45Qkwdz6ygDpMPOrm2uYeh5jrw481e6PXRl7L+r7vP6zQzi7qen7IndWKtLoF0AlBo4rGWUOhg/q5faCURd71mwEBAQEBSLrXjntRAQEBAQEBAQEBBpK0PYWubtA6EWvcJ+yJjdWWc8lvoy+vwiIupt8sDd8fVvTpwV3o9fFuzL/Kj1vD5r34o6fCDb9ytFQICDRxUSyh0MH9XL4hKF3QCzYCAgIF0HTgwKunhjmjiuyRoc08wRdc1tVjraazPh100WW9YtEdJWyvLvVCAgICAgICAgICAgw4XQV3nXJfrMQwaLW5dNTN483NHmPkrbRa/b/HklTa7Qb/5MUfvH+1dG4NjoeRV0pNtvJdENHLGWUPfg/q5fFTQu6N1kwLoF0C+tt/ggkWB5TrK+VklbE6npd529HvHIDePiq7UcQpjiYxzvP8ASx0vDr5pickbV/tY8cbI42sY0Na0ANAG4KgmZmd5l6OKxEbQ+ihkICAgICAgICAgICAgwRqggudMlsr+0xDCWBlVa8kI0Evhyd5qz0eu/T2x5PHyqtboIyb5Mfn7qwe0sLmvBa5ps5pFiD1CvInfqoJjbo+Tykph0MG9VL7Q8koi7oLLZiyASQALuJsABqT4J48n0SLCsn19aGyVJ/xIj+cXefAfVV+biWLH0r3T/SxwcMzZet+2P7TXCMu4fhQa6ni2phvlk1d/58FT5tXlzdLT0+F3g0eLB6Y6/Pu6ob1XM6myAgICAgICAgICAgICAgINS0W1QRLOeT4saY6rogyLEGjwbN0PXqu7R62cPbb0q/WaGueOavqVHVU09NUOp6iF8czTZzHDUfBX8Xi8b1neHn7Umk7W6S6WE08rY9gRuMsh0Y0XPyWXpjeWv1Ty16pjhOS66rtJWuFLCf8AnfIfhuCr8/E8dOmPun+ljg4Xlv1ydsf2muF4Hh2Fj/Vp2iTjI7V3zVPm1OXN0vPT49l3g0uHB6I6/Pu6WyFodDKAgICAgICAgICAgICAgICAgIMWHJBzMboaSopy+opYJXNGhkjDiPmujT5L1ttWZhz6jFjvG9qxJgdFSU8G3T0sETjvcyMNJ+SajLe07WmZNPix0jtrEf8ATpgDkudvhlEiAgICD//Z;" vertex="1" parent="1">
                    <mxGeometry x="50" y="20" width="40" height="40" as="geometry"/>
                </mxCell>
                <mxCell id="37" value="Develop" style="text;html=1;strokeColor=none;fillColor=none;align=center;verticalAlign=middle;whiteSpace=wrap;rounded=0;" vertex="1" parent="1">
                    <mxGeometry x="99" y="20" width="60" height="30" as="geometry"/>
                </mxCell>
                <mxCell id="38" value="Source Code&lt;br&gt;Control" style="text;html=1;strokeColor=none;fillColor=none;align=center;verticalAlign=middle;whiteSpace=wrap;rounded=0;" vertex="1" parent="1">
                    <mxGeometry x="10" y="140" width="90" height="30" as="geometry"/>
                </mxCell>
                <mxCell id="40" value="Build &amp;amp; Test &amp;amp; Deploy&amp;nbsp;" style="text;html=1;strokeColor=none;fillColor=none;align=center;verticalAlign=middle;whiteSpace=wrap;rounded=0;" vertex="1" parent="1">
                    <mxGeometry x="9" y="300" width="90" height="30" as="geometry"/>
                </mxCell>
                <mxCell id="41" value="Operate" style="text;html=1;strokeColor=none;fillColor=none;align=center;verticalAlign=middle;whiteSpace=wrap;rounded=0;" vertex="1" parent="1">
                    <mxGeometry x="10" y="434" width="90" height="30" as="geometry"/>
                </mxCell>
                <mxCell id="43" style="edgeStyle=none;html=1;entryX=0.45;entryY=1.1;entryDx=0;entryDy=0;entryPerimeter=0;" edge="1" parent="1" source="42" target="16">
                    <mxGeometry relative="1" as="geometry"/>
                </mxCell>
                <mxCell id="42" value="" style="aspect=fixed;html=1;points=[];align=center;image;fontSize=12;image=img/lib/azure2/general/Browser.svg;" vertex="1" parent="1">
                    <mxGeometry x="81" y="700" width="65" height="52" as="geometry"/>
                </mxCell>
                <mxCell id="44" value="Web Browser" style="text;html=1;strokeColor=none;fillColor=none;align=center;verticalAlign=middle;whiteSpace=wrap;rounded=0;" vertex="1" parent="1">
                    <mxGeometry x="140" y="720" width="90" height="30" as="geometry"/>
                </mxCell>
                <mxCell id="45" value="" style="sketch=0;points=[[0,0,0],[0.25,0,0],[0.5,0,0],[0.75,0,0],[1,0,0],[0,1,0],[0.25,1,0],[0.5,1,0],[0.75,1,0],[1,1,0],[0,0.25,0],[0,0.5,0],[0,0.75,0],[1,0.25,0],[1,0.5,0],[1,0.75,0]];outlineConnect=0;fontColor=#232F3E;gradientColor=#4D72F3;gradientDirection=north;fillColor=#3334B9;strokeColor=#ffffff;dashed=0;verticalLabelPosition=bottom;verticalAlign=top;align=center;html=1;fontSize=12;fontStyle=0;aspect=fixed;shape=mxgraph.aws4.resourceIcon;resIcon=mxgraph.aws4.rds;labelBackgroundColor=#FFFFFF;" vertex="1" parent="1">
                    <mxGeometry x="655" y="460" width="78" height="78" as="geometry"/>
                </mxCell>
            </root>
        </mxGraphModel>
    </diagram>
</mxfile>